<?xml version="1.0" encoding="UTF-8" standalone="no"?>
<svg viewBox="0 0 200 200" xmlns="http://www.w3.org/2000/svg">
  <!-- Background circle -->
  <circle cx="100" cy="100" r="100" fill="#4A90E2" />

  <!-- Face -->
  <circle cx="100" cy="85" r="55" fill="#F9D9B4" />

  <!-- Hair -->
  <path d="M45 85 C45 55, 155 55, 155 85 L155 45 C155 10, 45 10, 45 45 Z" fill="#6B4226" />

  <!-- Eyes -->
  <ellipse cx="75" cy="80" rx="8" ry="10" fill="white" />
  <ellipse cx="125" cy="80" rx="8" ry="10" fill="white" />
  <circle cx="75" cy="80" r="4" fill="#2C3E50" />
  <circle cx="125" cy="80" r="4" fill="#2C3E50" />

  <!-- Eyebrows -->
  <path d="M67 65 C75 60, 85 65, 83 68" stroke="#5D4037" stroke-width="2" fill="none" />
  <path d="M133 65 C125 60, 115 65, 117 68" stroke="#5D4037" stroke-width="2" fill="none" />

  <!-- Mouth -->
  <path d="M85 110 C95 120, 105 120, 115 110" stroke="#CC6666" stroke-width="3" fill="none" />

  <!-- Neck -->
  <rect x="85" y="135" width="30" height="20" fill="#F0C6A0" />

  <!-- Body/Shirt -->
  <path d="M60 155 L85 135 L115 135 L140 155 L150 200 L50 200 Z" fill="#8E44AD" />

  <!-- Optional glasses -->
  <path d="M65 80 C65 75, 85 75, 85 80 C85 85, 65 85, 65 80 Z" stroke="#000" stroke-width="1" fill="none" />
  <path d="M115 80 C115 75, 135 75, 135 80 C135 85, 115 85, 115 80 Z" stroke="#000" stroke-width="1" fill="none" />
  <line x1="85" y1="80" x2="115" y2="80" stroke="#000" stroke-width="1" />
</svg>